<svg
    xmlns:xlink="http://www.w3.org/1999/xlink" width="69" height="4077" text-rendering="optimizeLegibility" style="border: 0px; margin: 0px; padding: 0;" id="bit-booster">
    <path d="M9,11C8,37.25,25,19.75,24,35" stroke-width="2" stroke-opacity="1" opacity="1" fill="none" stroke="#79c753"></path>
    <path d="M24,59C25,85.25,8,67.75,9,83" stroke-width="2" stroke-opacity="1" opacity="1" fill="none" stroke="#79c753"></path>
    <path d="M9,83C8,109.25,25,91.75,24,107" stroke-width="2" stroke-opacity="1" opacity="1" fill="none" stroke="#79c753"></path>
    <path d="M24,131C25,157.25,8,139.75,9,155" stroke-width="2" stroke-opacity="1" opacity="1" fill="none" stroke="#79c753"></path>
    <path d="M9,179C8,205.25,25,187.75,24,203" stroke-width="2" stroke-opacity="1" opacity="1" fill="none" stroke="#79c753"></path>
    <path d="M24,299C25,325.25,8,307.75,9,323" stroke-width="2" stroke-opacity="1" opacity="1" fill="none" stroke="#79c753"></path>
    <path d="M24,275C23,301.25,40,283.75,39,299" stroke-width="2" stroke-opacity="1" opacity="1" fill="none" stroke="#f7786b"></path>
    <path d="M39,371C40,397.25,8,379.75,9,395" stroke-width="2" stroke-opacity="1" opacity="1" fill="none" stroke="#f7786b"></path>
    <path d="M9,323C8,349.25,25,331.75,24,347" stroke-width="2" stroke-opacity="1" opacity="1" fill="none" stroke="#79c753"></path>
    <path d="M24,371C25,397.25,8,379.75,9,395" stroke-width="2" stroke-opacity="1" opacity="1" fill="none" stroke="#79c753"></path>
    <path d="M9,395C8,421.25,25,403.75,24,419" stroke-width="2" stroke-opacity="1" opacity="1" fill="none" stroke="#79c753"></path>
    <path d="M24,491C25,517.25,8,499.75,9,515" stroke-width="2" stroke-opacity="1" opacity="1" fill="none" stroke="#79c753"></path>
    <path d="M9,539C8,565.25,25,547.75,24,563" stroke-width="2" stroke-opacity="1" opacity="1" fill="none" stroke="#79c753"></path>
    <path d="M24,587C25,613.25,8,595.75,9,611" stroke-width="2" stroke-opacity="1" opacity="1" fill="none" stroke="#79c753"></path>
    <path d="M9,611C8,637.25,25,619.75,24,635" stroke-width="2" stroke-opacity="1" opacity="1" fill="none" stroke="#79c753"></path>
    <path d="M24,683C25,709.25,8,691.75,9,707" stroke-width="2" stroke-opacity="1" opacity="1" fill="none" stroke="#79c753"></path>
    <path d="M9,971C8,997.25,25,979.75,24,995" stroke-width="2" stroke-opacity="1" opacity="1" fill="none" stroke="#79c753"></path>
    <path d="M24,1043C25,1069.25,8,1051.75,9,1067" stroke-width="2" stroke-opacity="1" opacity="1" fill="none" stroke="#79c753"></path>
    <path d="M9,1283C8,1309.25,25,1291.75,24,1307" stroke-width="2" stroke-opacity="1" opacity="1" fill="none" stroke="#79c753"></path>
    <path d="M24,1331C25,1357.25,8,1339.75,9,1355" stroke-width="2" stroke-opacity="1" opacity="1" fill="none" stroke="#79c753"></path>
    <path d="M9,1595C8,1621.25,25,1603.75,24,1619" stroke-width="2" stroke-opacity="1" opacity="1" fill="none" stroke="#79c753"></path>
    <path d="M24,1691C25,1717.25,8,1699.75,9,1715" stroke-width="2" stroke-opacity="1" opacity="1" fill="none" stroke="#79c753"></path>
    <path d="M9,1739C8,1765.25,25,1747.75,24,1763" stroke-width="2" stroke-opacity="1" opacity="1" fill="none" stroke="#79c753"></path>
    <path d="M24,1787C25,1813.25,8,1795.75,9,1811" stroke-width="2" stroke-opacity="1" opacity="1" fill="none" stroke="#79c753"></path>
    <path d="M9,2195C8,2221.25,25,2203.75,24,2219" stroke-width="2" stroke-opacity="1" opacity="1" fill="none" stroke="#79c753"></path>
    <path d="M24,2243C25,2269.25,8,2251.75,9,2267" stroke-width="2" stroke-opacity="1" opacity="1" fill="none" stroke="#79c753"></path>
    <path d="M9,2291C8,2317.25,25,2299.75,24,2315" stroke-width="2" stroke-opacity="1" opacity="1" fill="none" stroke="#79c753"></path>
    <path d="M24,2339C25,2365.25,8,2347.75,9,2363" stroke-width="2" stroke-opacity="1" opacity="1" fill="none" stroke="#79c753"></path>
    <path d="M24,2387C25,2413.25,8,2395.75,9,2411" stroke-width="2" stroke-opacity="1" opacity="1" fill="none" stroke="#79c753"></path>
    <path d="M24,2387C23,2413.25,40,2395.75,39,2411" stroke-width="2" stroke-opacity="1" opacity="1" fill="none" stroke="#f7786b"></path>
    <path d="M9,2411C8,2437.25,25,2419.75,24,2435" stroke-width="2" stroke-opacity="1" opacity="1" fill="none" stroke="#79c753"></path>
    <path d="M39,2459C40,2485.25,23,2467.75,24,2483" stroke-width="2" stroke-opacity="1" opacity="1" fill="none" stroke="#f7786b"></path>
    <path d="M39,2507C40,2533.25,8,2515.75,9,2531" stroke-width="2" stroke-opacity="1" opacity="1" fill="none" stroke="#f7786b"></path>
    <path d="M24,2483C23,2509.25,40,2491.75,39,2507" stroke-width="2" stroke-opacity="1" opacity="1" fill="none" stroke="#f7786b"></path>
    <path d="M9,2531C8,2557.25,25,2539.75,24,2555" stroke-width="2" stroke-opacity="1" opacity="1" fill="none" stroke="#79c753"></path>
    <path d="M24,2579C23,2605.25,40,2587.75,39,2603" stroke-width="2" stroke-opacity="1" opacity="1" fill="none" stroke="#f7786b"></path>
    <path d="M9,2603C8,2629.25,40,2611.75,39,2627" stroke-width="2" stroke-opacity="1" opacity="1" fill="none" stroke="#f7786b"></path>
    <path d="M9,2627C8,2653.25,25,2635.75,24,2651" stroke-width="2" stroke-opacity="1" opacity="1" fill="none" stroke="#79c753"></path>
    <path d="M54,2699C55,2725.25,23,2707.75,24,2723" stroke-width="2" stroke-opacity="1" opacity="1" fill="none" stroke="#fae03c"></path>
    <path d="M39,2651C38,2677.25,55,2659.75,54,2675" stroke-width="2" stroke-opacity="1" opacity="1" fill="none" stroke="#fae03c"></path>
    <path d="M24,2723C23,2749.25,40,2731.75,39,2747" stroke-width="2" stroke-opacity="1" opacity="1" fill="none" stroke="#f7786b"></path>
    <path d="M39,2771C40,2797.25,23,2779.75,24,2795" stroke-width="2" stroke-opacity="1" opacity="1" fill="none" stroke="#f7786b"></path>
    <path d="M24,2795C25,2821.25,8,2803.75,9,2819" stroke-width="2" stroke-opacity="1" opacity="1" fill="none" stroke="#79c753"></path>
    <path d="M9,2963C8,2989.25,25,2971.75,24,2987" stroke-width="2" stroke-opacity="1" opacity="1" fill="none" stroke="#79c753"></path>
    <path d="M24,3011C23,3037.25,40,3019.75,39,3035" stroke-width="2" stroke-opacity="1" opacity="1" fill="none" stroke="#f7786b"></path>
    <path d="M39,3059C40,3085.25,23,3067.75,24,3083" stroke-width="2" stroke-opacity="1" opacity="1" fill="none" stroke="#f7786b"></path>
    <path d="M24,3083C25,3109.25,8,3091.75,9,3107" stroke-width="2" stroke-opacity="1" opacity="1" fill="none" stroke="#79c753"></path>
    <path d="M9,3827C8,3853.25,25,3835.75,24,3851" stroke-width="2" stroke-opacity="1" opacity="1" fill="none" stroke="#79c753"></path>
    <path d="M24,3923C25,3949.25,8,3931.75,9,3947" stroke-width="2" stroke-opacity="1" opacity="1" fill="none" stroke="#79c753"></path>
    <path d="M9,4043L9,4067" stroke-width="2" stroke-opacity="1" opacity="1" stroke="#034f84"></path>
    <path d="M9,4019L9,4043" stroke-width="2" stroke-opacity="1" opacity="1" stroke="#034f84"></path>
    <path d="M9,3995L9,4019" stroke-width="2" stroke-opacity="1" opacity="1" stroke="#034f84"></path>
    <path d="M9,3971L9,3995" stroke-width="2" stroke-opacity="1" opacity="1" stroke="#034f84"></path>
    <path d="M9,3947L9,3971" stroke-width="2" stroke-opacity="1" opacity="1" stroke="#034f84"></path>
    <path d="M24,3923L24,3923" stroke-width="2" stroke-opacity="1" opacity="1" stroke="#79c753"></path>
    <path d="M24,3899L24,3923" stroke-width="2" stroke-opacity="1" opacity="1" stroke="#79c753"></path>
    <path d="M9,3875L9,3947" stroke-width="2" stroke-opacity="1" opacity="1" stroke="#034f84"></path>
    <path d="M9,3851L9,3875" stroke-width="2" stroke-opacity="1" opacity="1" stroke="#034f84"></path>
    <path d="M9,3827L9,3851" stroke-width="2" stroke-opacity="1" opacity="1" stroke="#034f84"></path>
    <path d="M24,3851L24,3899" stroke-width="2" stroke-opacity="1" opacity="1" stroke="#79c753"></path>
    <path d="M9,3803L9,3827" stroke-width="2" stroke-opacity="1" opacity="1" stroke="#034f84"></path>
    <path d="M9,3779L9,3803" stroke-width="2" stroke-opacity="1" opacity="1" stroke="#034f84"></path>
    <path d="M9,3755L9,3779" stroke-width="2" stroke-opacity="1" opacity="1" stroke="#034f84"></path>
    <path d="M9,3731L9,3755" stroke-width="2" stroke-opacity="1" opacity="1" stroke="#034f84"></path>
    <path d="M9,3707L9,3731" stroke-width="2" stroke-opacity="1" opacity="1" stroke="#034f84"></path>
    <path d="M9,3683L9,3707" stroke-width="2" stroke-opacity="1" opacity="1" stroke="#034f84"></path>
    <path d="M9,3659L9,3683" stroke-width="2" stroke-opacity="1" opacity="1" stroke="#034f84"></path>
    <path d="M9,3635L9,3659" stroke-width="2" stroke-opacity="1" opacity="1" stroke="#034f84"></path>
    <path d="M9,3611L9,3635" stroke-width="2" stroke-opacity="1" opacity="1" stroke="#034f84"></path>
    <path d="M9,3587L9,3611" stroke-width="2" stroke-opacity="1" opacity="1" stroke="#034f84"></path>
    <path d="M9,3563L9,3587" stroke-width="2" stroke-opacity="1" opacity="1" stroke="#034f84"></path>
    <path d="M9,3539L9,3563" stroke-width="2" stroke-opacity="1" opacity="1" stroke="#034f84"></path>
    <path d="M9,3515L9,3539" stroke-width="2" stroke-opacity="1" opacity="1" stroke="#034f84"></path>
    <path d="M9,3491L9,3515" stroke-width="2" stroke-opacity="1" opacity="1" stroke="#034f84"></path>
    <path d="M9,3467L9,3491" stroke-width="2" stroke-opacity="1" opacity="1" stroke="#034f84"></path>
    <path d="M9,3443L9,3467" stroke-width="2" stroke-opacity="1" opacity="1" stroke="#034f84"></path>
    <path d="M9,3419L9,3443" stroke-width="2" stroke-opacity="1" opacity="1" stroke="#034f84"></path>
    <path d="M9,3395L9,3419" stroke-width="2" stroke-opacity="1" opacity="1" stroke="#034f84"></path>
    <path d="M9,3371L9,3395" stroke-width="2" stroke-opacity="1" opacity="1" stroke="#034f84"></path>
    <path d="M9,3347L9,3371" stroke-width="2" stroke-opacity="1" opacity="1" stroke="#034f84"></path>
    <path d="M9,3323L9,3347" stroke-width="2" stroke-opacity="1" opacity="1" stroke="#034f84"></path>
    <path d="M9,3299L9,3323" stroke-width="2" stroke-opacity="1" opacity="1" stroke="#034f84"></path>
    <path d="M9,3275L9,3299" stroke-width="2" stroke-opacity="1" opacity="1" stroke="#034f84"></path>
    <path d="M9,3251L9,3275" stroke-width="2" stroke-opacity="1" opacity="1" stroke="#034f84"></path>
    <path d="M9,3227L9,3251" stroke-width="2" stroke-opacity="1" opacity="1" stroke="#034f84"></path>
    <path d="M9,3203L9,3227" stroke-width="2" stroke-opacity="1" opacity="1" stroke="#034f84"></path>
    <path d="M9,3179L9,3203" stroke-width="2" stroke-opacity="1" opacity="1" stroke="#034f84"></path>
    <path d="M9,3155L9,3179" stroke-width="2" stroke-opacity="1" opacity="1" stroke="#034f84"></path>
    <path d="M9,3131L9,3155" stroke-width="2" stroke-opacity="1" opacity="1" stroke="#034f84"></path>
    <path d="M9,3107L9,3131" stroke-width="2" stroke-opacity="1" opacity="1" stroke="#034f84"></path>
    <path d="M24,3083L24,3083" stroke-width="2" stroke-opacity="1" opacity="1" stroke="#79c753"></path>
    <path d="M39,3059L39,3059" stroke-width="2" stroke-opacity="1" opacity="1" stroke="#f7786b"></path>
    <path d="M24,3035L24,3083" stroke-width="2" stroke-opacity="1" opacity="1" stroke="#79c753"></path>
    <path d="M24,3011L24,3035" stroke-width="2" stroke-opacity="1" opacity="1" stroke="#79c753"></path>
    <path d="M39,3035L39,3059" stroke-width="2" stroke-opacity="1" opacity="1" stroke="#f7786b"></path>
    <path d="M9,2987L9,3107" stroke-width="2" stroke-opacity="1" opacity="1" stroke="#034f84"></path>
    <path d="M9,2963L9,2987" stroke-width="2" stroke-opacity="1" opacity="1" stroke="#034f84"></path>
    <path d="M24,2987L24,3011" stroke-width="2" stroke-opacity="1" opacity="1" stroke="#79c753"></path>
    <path d="M9,2939L9,2963" stroke-width="2" stroke-opacity="1" opacity="1" stroke="#034f84"></path>
    <path d="M9,2915L9,2939" stroke-width="2" stroke-opacity="1" opacity="1" stroke="#034f84"></path>
    <path d="M9,2891L9,2915" stroke-width="2" stroke-opacity="1" opacity="1" stroke="#034f84"></path>
    <path d="M9,2867L9,2891" stroke-width="2" stroke-opacity="1" opacity="1" stroke="#034f84"></path>
    <path d="M9,2843L9,2867" stroke-width="2" stroke-opacity="1" opacity="1" stroke="#034f84"></path>
    <path d="M9,2819L9,2843" stroke-width="2" stroke-opacity="1" opacity="1" stroke="#034f84"></path>
    <path d="M24,2795L24,2795" stroke-width="2" stroke-opacity="1" opacity="1" stroke="#79c753"></path>
    <path d="M39,2771L39,2771" stroke-width="2" stroke-opacity="1" opacity="1" stroke="#f7786b"></path>
    <path d="M24,2747L24,2795" stroke-width="2" stroke-opacity="1" opacity="1" stroke="#79c753"></path>
    <path d="M24,2723L24,2747" stroke-width="2" stroke-opacity="1" opacity="1" stroke="#79c753"></path>
    <path d="M39,2747L39,2771" stroke-width="2" stroke-opacity="1" opacity="1" stroke="#f7786b"></path>
    <path d="M9,2699L9,2819" stroke-width="2" stroke-opacity="1" opacity="1" stroke="#034f84"></path>
    <path d="M39,2675L39,2771" stroke-width="2" stroke-opacity="1" opacity="1" stroke="#f7786b"></path>
    <path d="M39,2651L39,2675" stroke-width="2" stroke-opacity="1" opacity="1" stroke="#f7786b"></path>
    <path d="M54,2675L54,2699" stroke-width="2" stroke-opacity="1" opacity="1" stroke="#fae03c"></path>
    <path d="M9,2627L9,2699" stroke-width="2" stroke-opacity="1" opacity="1" stroke="#034f84"></path>
    <path d="M24,2651L24,2723" stroke-width="2" stroke-opacity="1" opacity="1" stroke="#79c753"></path>
    <path d="M9,2603L9,2627" stroke-width="2" stroke-opacity="1" opacity="1" stroke="#034f84"></path>
    <path d="M39,2627L39,2651" stroke-width="2" stroke-opacity="1" opacity="1" stroke="#f7786b"></path>
    <path d="M39,2603L39,2651" stroke-width="2" stroke-opacity="1" opacity="1" stroke="#f7786b"></path>
    <path d="M9,2555L9,2603" stroke-width="2" stroke-opacity="1" opacity="1" stroke="#034f84"></path>
    <path d="M9,2531L9,2555" stroke-width="2" stroke-opacity="1" opacity="1" stroke="#034f84"></path>
    <path d="M24,2555L24,2579" stroke-width="2" stroke-opacity="1" opacity="1" stroke="#79c753"></path>
    <path d="M24,2507L24,2579" stroke-width="2" stroke-opacity="1" opacity="1" stroke="#79c753"></path>
    <path d="M24,2483L24,2507" stroke-width="2" stroke-opacity="1" opacity="1" stroke="#79c753"></path>
    <path d="M39,2507L39,2507" stroke-width="2" stroke-opacity="1" opacity="1" stroke="#f7786b"></path>
    <path d="M39,2459L39,2459" stroke-width="2" stroke-opacity="1" opacity="1" stroke="#f7786b"></path>
    <path d="M9,2435L9,2531" stroke-width="2" stroke-opacity="1" opacity="1" stroke="#034f84"></path>
    <path d="M9,2411L9,2435" stroke-width="2" stroke-opacity="1" opacity="1" stroke="#034f84"></path>
    <path d="M24,2435L24,2483" stroke-width="2" stroke-opacity="1" opacity="1" stroke="#79c753"></path>
    <path d="M39,2411L39,2459" stroke-width="2" stroke-opacity="1" opacity="1" stroke="#f7786b"></path>
    <path d="M24,2387L24,2387" stroke-width="2" stroke-opacity="1" opacity="1" stroke="#79c753"></path>
    <path d="M9,2363L9,2411" stroke-width="2" stroke-opacity="1" opacity="1" stroke="#034f84"></path>
    <path d="M24,2339L24,2387" stroke-width="2" stroke-opacity="1" opacity="1" stroke="#79c753"></path>
    <path d="M24,2339L24,2339" stroke-width="2" stroke-opacity="1" opacity="1" stroke="#79c753"></path>
    <path d="M9,2315L9,2363" stroke-width="2" stroke-opacity="1" opacity="1" stroke="#034f84"></path>
    <path d="M9,2291L9,2315" stroke-width="2" stroke-opacity="1" opacity="1" stroke="#034f84"></path>
    <path d="M24,2315L24,2339" stroke-width="2" stroke-opacity="1" opacity="1" stroke="#79c753"></path>
    <path d="M9,2267L9,2291" stroke-width="2" stroke-opacity="1" opacity="1" stroke="#034f84"></path>
    <path d="M24,2243L24,2243" stroke-width="2" stroke-opacity="1" opacity="1" stroke="#79c753"></path>
    <path d="M9,2219L9,2267" stroke-width="2" stroke-opacity="1" opacity="1" stroke="#034f84"></path>
    <path d="M9,2195L9,2219" stroke-width="2" stroke-opacity="1" opacity="1" stroke="#034f84"></path>
    <path d="M24,2219L24,2243" stroke-width="2" stroke-opacity="1" opacity="1" stroke="#79c753"></path>
    <path d="M9,2171L9,2195" stroke-width="2" stroke-opacity="1" opacity="1" stroke="#034f84"></path>
    <path d="M9,2147L9,2171" stroke-width="2" stroke-opacity="1" opacity="1" stroke="#034f84"></path>
    <path d="M9,2123L9,2147" stroke-width="2" stroke-opacity="1" opacity="1" stroke="#034f84"></path>
    <path d="M9,2099L9,2123" stroke-width="2" stroke-opacity="1" opacity="1" stroke="#034f84"></path>
    <path d="M9,2075L9,2099" stroke-width="2" stroke-opacity="1" opacity="1" stroke="#034f84"></path>
    <path d="M9,2051L9,2075" stroke-width="2" stroke-opacity="1" opacity="1" stroke="#034f84"></path>
    <path d="M9,2027L9,2051" stroke-width="2" stroke-opacity="1" opacity="1" stroke="#034f84"></path>
    <path d="M9,2003L9,2027" stroke-width="2" stroke-opacity="1" opacity="1" stroke="#034f84"></path>
    <path d="M9,1979L9,2003" stroke-width="2" stroke-opacity="1" opacity="1" stroke="#034f84"></path>
    <path d="M9,1955L9,1979" stroke-width="2" stroke-opacity="1" opacity="1" stroke="#034f84"></path>
    <path d="M9,1931L9,1955" stroke-width="2" stroke-opacity="1" opacity="1" stroke="#034f84"></path>
    <path d="M9,1907L9,1931" stroke-width="2" stroke-opacity="1" opacity="1" stroke="#034f84"></path>
    <path d="M9,1883L9,1907" stroke-width="2" stroke-opacity="1" opacity="1" stroke="#034f84"></path>
    <path d="M9,1859L9,1883" stroke-width="2" stroke-opacity="1" opacity="1" stroke="#034f84"></path>
    <path d="M9,1835L9,1859" stroke-width="2" stroke-opacity="1" opacity="1" stroke="#034f84"></path>
    <path d="M9,1811L9,1835" stroke-width="2" stroke-opacity="1" opacity="1" stroke="#034f84"></path>
    <path d="M24,1787L24,1787" stroke-width="2" stroke-opacity="1" opacity="1" stroke="#79c753"></path>
    <path d="M9,1763L9,1811" stroke-width="2" stroke-opacity="1" opacity="1" stroke="#034f84"></path>
    <path d="M9,1739L9,1763" stroke-width="2" stroke-opacity="1" opacity="1" stroke="#034f84"></path>
    <path d="M24,1763L24,1787" stroke-width="2" stroke-opacity="1" opacity="1" stroke="#79c753"></path>
    <path d="M9,1715L9,1739" stroke-width="2" stroke-opacity="1" opacity="1" stroke="#034f84"></path>
    <path d="M24,1691L24,1691" stroke-width="2" stroke-opacity="1" opacity="1" stroke="#79c753"></path>
    <path d="M24,1667L24,1691" stroke-width="2" stroke-opacity="1" opacity="1" stroke="#79c753"></path>
    <path d="M24,1643L24,1667" stroke-width="2" stroke-opacity="1" opacity="1" stroke="#79c753"></path>
    <path d="M9,1619L9,1715" stroke-width="2" stroke-opacity="1" opacity="1" stroke="#034f84"></path>
    <path d="M9,1595L9,1619" stroke-width="2" stroke-opacity="1" opacity="1" stroke="#034f84"></path>
    <path d="M24,1619L24,1643" stroke-width="2" stroke-opacity="1" opacity="1" stroke="#79c753"></path>
    <path d="M9,1571L9,1595" stroke-width="2" stroke-opacity="1" opacity="1" stroke="#034f84"></path>
    <path d="M9,1547L9,1571" stroke-width="2" stroke-opacity="1" opacity="1" stroke="#034f84"></path>
    <path d="M9,1523L9,1547" stroke-width="2" stroke-opacity="1" opacity="1" stroke="#034f84"></path>
    <path d="M9,1499L9,1523" stroke-width="2" stroke-opacity="1" opacity="1" stroke="#034f84"></path>
    <path d="M9,1475L9,1499" stroke-width="2" stroke-opacity="1" opacity="1" stroke="#034f84"></path>
    <path d="M9,1451L9,1475" stroke-width="2" stroke-opacity="1" opacity="1" stroke="#034f84"></path>
    <path d="M9,1427L9,1451" stroke-width="2" stroke-opacity="1" opacity="1" stroke="#034f84"></path>
    <path d="M9,1403L9,1427" stroke-width="2" stroke-opacity="1" opacity="1" stroke="#034f84"></path>
    <path d="M9,1379L9,1403" stroke-width="2" stroke-opacity="1" opacity="1" stroke="#034f84"></path>
    <path d="M9,1355L9,1379" stroke-width="2" stroke-opacity="1" opacity="1" stroke="#034f84"></path>
    <path d="M24,1331L24,1331" stroke-width="2" stroke-opacity="1" opacity="1" stroke="#79c753"></path>
    <path d="M9,1307L9,1355" stroke-width="2" stroke-opacity="1" opacity="1" stroke="#034f84"></path>
    <path d="M9,1283L9,1307" stroke-width="2" stroke-opacity="1" opacity="1" stroke="#034f84"></path>
    <path d="M24,1307L24,1331" stroke-width="2" stroke-opacity="1" opacity="1" stroke="#79c753"></path>
    <path d="M9,1259L9,1283" stroke-width="2" stroke-opacity="1" opacity="1" stroke="#034f84"></path>
    <path d="M9,1235L9,1259" stroke-width="2" stroke-opacity="1" opacity="1" stroke="#034f84"></path>
    <path d="M9,1211L9,1235" stroke-width="2" stroke-opacity="1" opacity="1" stroke="#034f84"></path>
    <path d="M9,1187L9,1211" stroke-width="2" stroke-opacity="1" opacity="1" stroke="#034f84"></path>
    <path d="M9,1163L9,1187" stroke-width="2" stroke-opacity="1" opacity="1" stroke="#034f84"></path>
    <path d="M9,1139L9,1163" stroke-width="2" stroke-opacity="1" opacity="1" stroke="#034f84"></path>
    <path d="M9,1115L9,1139" stroke-width="2" stroke-opacity="1" opacity="1" stroke="#034f84"></path>
    <path d="M9,1091L9,1115" stroke-width="2" stroke-opacity="1" opacity="1" stroke="#034f84"></path>
    <path d="M9,1067L9,1091" stroke-width="2" stroke-opacity="1" opacity="1" stroke="#034f84"></path>
    <path d="M24,1043L24,1043" stroke-width="2" stroke-opacity="1" opacity="1" stroke="#79c753"></path>
    <path d="M24,1019L24,1043" stroke-width="2" stroke-opacity="1" opacity="1" stroke="#79c753"></path>
    <path d="M9,995L9,1067" stroke-width="2" stroke-opacity="1" opacity="1" stroke="#034f84"></path>
    <path d="M9,971L9,995" stroke-width="2" stroke-opacity="1" opacity="1" stroke="#034f84"></path>
    <path d="M24,995L24,1019" stroke-width="2" stroke-opacity="1" opacity="1" stroke="#79c753"></path>
    <path d="M9,947L9,971" stroke-width="2" stroke-opacity="1" opacity="1" stroke="#034f84"></path>
    <path d="M9,923L9,947" stroke-width="2" stroke-opacity="1" opacity="1" stroke="#034f84"></path>
    <path d="M9,899L9,923" stroke-width="2" stroke-opacity="1" opacity="1" stroke="#034f84"></path>
    <path d="M9,875L9,899" stroke-width="2" stroke-opacity="1" opacity="1" stroke="#034f84"></path>
    <path d="M9,851L9,875" stroke-width="2" stroke-opacity="1" opacity="1" stroke="#034f84"></path>
    <path d="M9,827L9,851" stroke-width="2" stroke-opacity="1" opacity="1" stroke="#034f84"></path>
    <path d="M9,803L9,827" stroke-width="2" stroke-opacity="1" opacity="1" stroke="#034f84"></path>
    <path d="M9,779L9,803" stroke-width="2" stroke-opacity="1" opacity="1" stroke="#034f84"></path>
    <path d="M9,755L9,779" stroke-width="2" stroke-opacity="1" opacity="1" stroke="#034f84"></path>
    <path d="M9,731L9,755" stroke-width="2" stroke-opacity="1" opacity="1" stroke="#034f84"></path>
    <path d="M9,707L9,731" stroke-width="2" stroke-opacity="1" opacity="1" stroke="#034f84"></path>
    <path d="M24,683L24,683" stroke-width="2" stroke-opacity="1" opacity="1" stroke="#79c753"></path>
    <path d="M24,659L24,683" stroke-width="2" stroke-opacity="1" opacity="1" stroke="#79c753"></path>
    <path d="M9,635L9,707" stroke-width="2" stroke-opacity="1" opacity="1" stroke="#034f84"></path>
    <path d="M9,611L9,635" stroke-width="2" stroke-opacity="1" opacity="1" stroke="#034f84"></path>
    <path d="M24,635L24,659" stroke-width="2" stroke-opacity="1" opacity="1" stroke="#79c753"></path>
    <path d="M24,587L24,587" stroke-width="2" stroke-opacity="1" opacity="1" stroke="#79c753"></path>
    <path d="M9,563L9,611" stroke-width="2" stroke-opacity="1" opacity="1" stroke="#034f84"></path>
    <path d="M9,539L9,563" stroke-width="2" stroke-opacity="1" opacity="1" stroke="#034f84"></path>
    <path d="M24,563L24,587" stroke-width="2" stroke-opacity="1" opacity="1" stroke="#79c753"></path>
    <path d="M9,515L9,539" stroke-width="2" stroke-opacity="1" opacity="1" stroke="#034f84"></path>
    <path d="M24,491L24,491" stroke-width="2" stroke-opacity="1" opacity="1" stroke="#79c753"></path>
    <path d="M24,467L24,491" stroke-width="2" stroke-opacity="1" opacity="1" stroke="#79c753"></path>
    <path d="M24,443L24,467" stroke-width="2" stroke-opacity="1" opacity="1" stroke="#79c753"></path>
    <path d="M9,419L9,515" stroke-width="2" stroke-opacity="1" opacity="1" stroke="#034f84"></path>
    <path d="M9,395L9,419" stroke-width="2" stroke-opacity="1" opacity="1" stroke="#034f84"></path>
    <path d="M24,419L24,443" stroke-width="2" stroke-opacity="1" opacity="1" stroke="#79c753"></path>
    <path d="M24,371L24,371" stroke-width="2" stroke-opacity="1" opacity="1" stroke="#79c753"></path>
    <path d="M9,347L9,395" stroke-width="2" stroke-opacity="1" opacity="1" stroke="#034f84"></path>
    <path d="M9,323L9,347" stroke-width="2" stroke-opacity="1" opacity="1" stroke="#034f84"></path>
    <path d="M24,347L24,371" stroke-width="2" stroke-opacity="1" opacity="1" stroke="#79c753"></path>
    <path d="M39,299L39,371" stroke-width="2" stroke-opacity="1" opacity="1" stroke="#f7786b"></path>
    <path d="M39,299L39,299" stroke-width="2" stroke-opacity="1" opacity="1" stroke="#f7786b"></path>
    <path d="M24,275L24,299" stroke-width="2" stroke-opacity="1" opacity="1" stroke="#79c753"></path>
    <path d="M24,251L24,275" stroke-width="2" stroke-opacity="1" opacity="1" stroke="#79c753"></path>
    <path d="M24,227L24,251" stroke-width="2" stroke-opacity="1" opacity="1" stroke="#79c753"></path>
    <path d="M9,203L9,323" stroke-width="2" stroke-opacity="1" opacity="1" stroke="#034f84"></path>
    <path d="M9,179L9,203" stroke-width="2" stroke-opacity="1" opacity="1" stroke="#034f84"></path>
    <path d="M24,203L24,227" stroke-width="2" stroke-opacity="1" opacity="1" stroke="#79c753"></path>
    <path d="M9,155L9,179" stroke-width="2" stroke-opacity="1" opacity="1" stroke="#034f84"></path>
    <path d="M24,131L24,131" stroke-width="2" stroke-opacity="1" opacity="1" stroke="#79c753"></path>
    <path d="M9,107L9,155" stroke-width="2" stroke-opacity="1" opacity="1" stroke="#034f84"></path>
    <path d="M9,83L9,107" stroke-width="2" stroke-opacity="1" opacity="1" stroke="#034f84"></path>
    <path d="M24,107L24,131" stroke-width="2" stroke-opacity="1" opacity="1" stroke="#79c753"></path>
    <path d="M24,59L24,59" stroke-width="2" stroke-opacity="1" opacity="1" stroke="#79c753"></path>
    <path d="M9,35L9,83" stroke-width="2" stroke-opacity="1" opacity="1" stroke="#034f84"></path>
    <path d="M9,11L9,35" stroke-width="2" stroke-opacity="1" opacity="1" stroke="#034f84"></path>
    <path d="M24,35L24,59" stroke-width="2" stroke-opacity="1" opacity="1" stroke="#79c753"></path>
    <circle id="C_4ab1fc6" cx="9" cy="4067" r="4" fill="#034f84" stroke="none"></circle>
    <circle id="C_eb846bc" cx="9" cy="4043" r="4" fill="#034f84" stroke="none"></circle>
    <circle id="C_a727c36" cx="9" cy="4019" r="4" fill="#034f84" stroke="none"></circle>
    <circle id="C_ec6258b" cx="9" cy="3995" r="4" fill="#034f84" stroke="none"></circle>
    <circle id="C_e216090" cx="9" cy="3971" r="4" fill="#034f84" stroke="none"></circle>
    <circle id="C_731251a" cx="9" cy="3947" r="4" fill="#034f84" stroke="none"></circle>
    <circle id="C_971d723" cx="24" cy="3923" r="4" fill="#79c753" stroke="none"></circle>
    <circle id="C_f6547cb" cx="24" cy="3899" r="4" fill="#79c753" stroke="none"></circle>
    <circle id="C_ed1bc49" cx="9" cy="3875" r="4" fill="#034f84" stroke="none"></circle>
    <circle id="C_4e0b698" cx="9" cy="3851" r="4" fill="#034f84" stroke="none"></circle>
    <circle id="C_0bba2fc" cx="9" cy="3827" r="4" fill="#034f84" stroke="none"></circle>
    <circle id="C_ec4610f" cx="9" cy="3803" r="4" fill="#034f84" stroke="none"></circle>
    <circle id="C_2656c29" cx="9" cy="3779" r="4" fill="#034f84" stroke="none"></circle>
    <circle id="C_0509123" cx="9" cy="3755" r="4" fill="#034f84" stroke="none"></circle>
    <circle id="C_b74377d" cx="9" cy="3731" r="4" fill="#034f84" stroke="none"></circle>
    <circle id="C_4cace53" cx="9" cy="3707" r="4" fill="#034f84" stroke="none"></circle>
    <circle id="C_4623717" cx="9" cy="3683" r="4" fill="#034f84" stroke="none"></circle>
    <circle id="C_a4b8785" cx="9" cy="3659" r="4" fill="#034f84" stroke="none"></circle>
    <circle id="C_06c9cc6" cx="9" cy="3635" r="4" fill="#034f84" stroke="none"></circle>
    <circle id="C_2556c25" cx="9" cy="3611" r="4" fill="#034f84" stroke="none"></circle>
    <circle id="C_0e178b0" cx="9" cy="3587" r="4" fill="#034f84" stroke="none"></circle>
    <circle id="C_4fd1a91" cx="9" cy="3563" r="4" fill="#034f84" stroke="none"></circle>
    <circle id="C_041f559" cx="9" cy="3539" r="4" fill="#034f84" stroke="none"></circle>
    <circle id="C_fa7c1ea" cx="9" cy="3515" r="4" fill="#034f84" stroke="none"></circle>
    <circle id="C_74fb68d" cx="9" cy="3491" r="4" fill="#034f84" stroke="none"></circle>
    <circle id="C_aa30453" cx="9" cy="3467" r="4" fill="#034f84" stroke="none"></circle>
    <circle id="C_3dc10af" cx="9" cy="3443" r="4" fill="#034f84" stroke="none"></circle>
    <circle id="C_24129d4" cx="9" cy="3419" r="4" fill="#034f84" stroke="none"></circle>
    <circle id="C_60b53b0" cx="9" cy="3395" r="4" fill="#034f84" stroke="none"></circle>
    <circle id="C_382808d" cx="9" cy="3371" r="4" fill="#034f84" stroke="none"></circle>
    <circle id="C_6191d2e" cx="9" cy="3347" r="4" fill="#034f84" stroke="none"></circle>
    <circle id="C_a432921" cx="9" cy="3323" r="4" fill="#034f84" stroke="none"></circle>
    <circle id="C_4f0c8cf" cx="9" cy="3299" r="4" fill="#034f84" stroke="none"></circle>
    <circle id="C_5983e8c" cx="9" cy="3275" r="4" fill="#034f84" stroke="none"></circle>
    <circle id="C_d4311c8" cx="9" cy="3251" r="4" fill="#034f84" stroke="none"></circle>
    <circle id="C_457c10b" cx="9" cy="3227" r="4" fill="#034f84" stroke="none"></circle>
    <circle id="C_e78a8a6" cx="9" cy="3203" r="4" fill="#034f84" stroke="none"></circle>
    <circle id="C_3be94d6" cx="9" cy="3179" r="4" fill="#034f84" stroke="none"></circle>
    <circle id="C_77bf785" cx="9" cy="3155" r="4" fill="#034f84" stroke="none"></circle>
    <circle id="C_fba9f24" cx="9" cy="3131" r="4" fill="#034f84" stroke="none"></circle>
    <circle id="C_a68d7b4" cx="9" cy="3107" r="4" fill="#034f84" stroke="none"></circle>
    <circle id="C_cd22201" cx="24" cy="3083" r="4" fill="#79c753" stroke="none"></circle>
    <circle id="C_2395f9e" cx="39" cy="3059" r="4" fill="#f7786b" stroke="none"></circle>
    <circle id="C_fd25802" cx="24" cy="3035" r="4" fill="#79c753" stroke="none"></circle>
    <circle id="C_6524504" cx="24" cy="3011" r="4" fill="#79c753" stroke="none"></circle>
    <circle id="C_5e8b739" cx="9" cy="2987" r="4" fill="#034f84" stroke="none"></circle>
    <circle id="C_31c8229" cx="9" cy="2963" r="4" fill="#034f84" stroke="none"></circle>
    <circle id="C_fd94685" cx="9" cy="2939" r="4" fill="#034f84" stroke="none"></circle>
    <circle id="C_c780310" cx="9" cy="2915" r="4" fill="#034f84" stroke="none"></circle>
    <circle id="C_ed250f3" cx="9" cy="2891" r="4" fill="#034f84" stroke="none"></circle>
    <circle id="C_bc2c5f7" cx="9" cy="2867" r="4" fill="#034f84" stroke="none"></circle>
    <circle id="C_26ef7c6" cx="9" cy="2843" r="4" fill="#034f84" stroke="none"></circle>
    <circle id="C_ba5eb34" cx="9" cy="2819" r="4" fill="#034f84" stroke="none"></circle>
    <circle id="C_b204b2a" cx="24" cy="2795" r="4" fill="#79c753" stroke="none"></circle>
    <circle id="C_7da2505" cx="39" cy="2771" r="4" fill="#f7786b" stroke="none"></circle>
    <circle id="C_c38f85c" cx="24" cy="2747" r="4" fill="#79c753" stroke="none"></circle>
    <circle id="C_d31ff70" cx="24" cy="2723" r="4" fill="#fae03c" stroke="none"></circle>
    <circle id="C_324e9c1" cx="9" cy="2699" r="4" fill="#034f84" stroke="none"></circle>
    <circle id="C_a9d72a6" cx="39" cy="2675" r="4" fill="#f7786b" stroke="none"></circle>
    <circle id="C_9ececa9" cx="39" cy="2651" r="4" fill="#f7786b" stroke="none"></circle>
    <circle id="C_495b1ed" cx="9" cy="2627" r="4" fill="#034f84" stroke="none"></circle>
    <circle id="C_bf25ec6" cx="9" cy="2603" r="4" fill="#034f84" stroke="none"></circle>
    <circle id="C_666729e" cx="24" cy="2579" r="4" fill="#79c753" stroke="none"></circle>
    <circle id="C_c27bd5f" cx="9" cy="2555" r="4" fill="#034f84" stroke="none"></circle>
    <circle id="C_7bf65b4" cx="9" cy="2531" r="4" fill="#034f84" stroke="none"></circle>
    <circle id="C_79fb182" cx="24" cy="2507" r="4" fill="#79c753" stroke="none"></circle>
    <circle id="C_9d930ac" cx="24" cy="2483" r="4" fill="#79c753" stroke="none"></circle>
    <circle id="C_592f456" cx="39" cy="2459" r="4" fill="#f7786b" stroke="none"></circle>
    <circle id="C_21a467a" cx="9" cy="2435" r="4" fill="#034f84" stroke="none"></circle>
    <circle id="C_3a27450" cx="9" cy="2411" r="4" fill="#034f84" stroke="none"></circle>
    <circle id="C_71e99e2" cx="24" cy="2387" r="4" fill="#79c753" stroke="none"></circle>
    <circle id="C_e3874a2" cx="9" cy="2363" r="4" fill="#034f84" stroke="none"></circle>
    <circle id="C_8f03ea0" cx="24" cy="2339" r="4" fill="#79c753" stroke="none"></circle>
    <circle id="C_1b8868a" cx="9" cy="2315" r="4" fill="#034f84" stroke="none"></circle>
    <circle id="C_9fb4ecb" cx="9" cy="2291" r="4" fill="#034f84" stroke="none"></circle>
    <circle id="C_0adcfe2" cx="9" cy="2267" r="4" fill="#034f84" stroke="none"></circle>
    <circle id="C_b7562e0" cx="24" cy="2243" r="4" fill="#79c753" stroke="none"></circle>
    <circle id="C_1ee19dc" cx="9" cy="2219" r="4" fill="#034f84" stroke="none"></circle>
    <circle id="C_309e4f3" cx="9" cy="2195" r="4" fill="#034f84" stroke="none"></circle>
    <circle id="C_628df82" cx="9" cy="2171" r="4" fill="#034f84" stroke="none"></circle>
    <circle id="C_25b40c5" cx="9" cy="2147" r="4" fill="#034f84" stroke="none"></circle>
    <circle id="C_68a559f" cx="9" cy="2123" r="4" fill="#034f84" stroke="none"></circle>
    <circle id="C_333397b" cx="9" cy="2099" r="4" fill="#034f84" stroke="none"></circle>
    <circle id="C_c4353df" cx="9" cy="2075" r="4" fill="#034f84" stroke="none"></circle>
    <circle id="C_fe550fa" cx="9" cy="2051" r="4" fill="#034f84" stroke="none"></circle>
    <circle id="C_2fe4d76" cx="9" cy="2027" r="4" fill="#034f84" stroke="none"></circle>
    <circle id="C_36b5fe5" cx="9" cy="2003" r="4" fill="#034f84" stroke="none"></circle>
    <circle id="C_2d73d05" cx="9" cy="1979" r="4" fill="#034f84" stroke="none"></circle>
    <circle id="C_4dc5d2b" cx="9" cy="1955" r="4" fill="#034f84" stroke="none"></circle>
    <circle id="C_3df4acd" cx="9" cy="1931" r="4" fill="#034f84" stroke="none"></circle>
    <circle id="C_28db4f2" cx="9" cy="1907" r="4" fill="#034f84" stroke="none"></circle>
    <circle id="C_d4ce8ce" cx="9" cy="1883" r="4" fill="#034f84" stroke="none"></circle>
    <circle id="C_43fc199" cx="9" cy="1859" r="4" fill="#034f84" stroke="none"></circle>
    <circle id="C_c895ec8" cx="9" cy="1835" r="4" fill="#034f84" stroke="none"></circle>
    <circle id="C_b136d19" cx="9" cy="1811" r="4" fill="#034f84" stroke="none"></circle>
    <circle id="C_5073f64" cx="24" cy="1787" r="4" fill="#79c753" stroke="none"></circle>
    <circle id="C_0582375" cx="9" cy="1763" r="4" fill="#034f84" stroke="none"></circle>
    <circle id="C_ad7963c" cx="9" cy="1739" r="4" fill="#034f84" stroke="none"></circle>
    <circle id="C_d587847" cx="9" cy="1715" r="4" fill="#034f84" stroke="none"></circle>
    <circle id="C_ba0a312" cx="24" cy="1691" r="4" fill="#79c753" stroke="none"></circle>
    <circle id="C_b574386" cx="24" cy="1667" r="4" fill="#79c753" stroke="none"></circle>
    <circle id="C_a098c37" cx="24" cy="1643" r="4" fill="#79c753" stroke="none"></circle>
    <circle id="C_7fad370" cx="9" cy="1619" r="4" fill="#034f84" stroke="none"></circle>
    <circle id="C_294676e" cx="9" cy="1595" r="4" fill="#034f84" stroke="none"></circle>
    <circle id="C_420d39e" cx="9" cy="1571" r="4" fill="#034f84" stroke="none"></circle>
    <circle id="C_b84378d" cx="9" cy="1547" r="4" fill="#034f84" stroke="none"></circle>
    <circle id="C_4d75ed7" cx="9" cy="1523" r="4" fill="#034f84" stroke="none"></circle>
    <circle id="C_4da42ff" cx="9" cy="1499" r="4" fill="#034f84" stroke="none"></circle>
    <circle id="C_bb9f96f" cx="9" cy="1475" r="4" fill="#034f84" stroke="none"></circle>
    <circle id="C_aeecbe9" cx="9" cy="1451" r="4" fill="#034f84" stroke="none"></circle>
    <circle id="C_8b71daa" cx="9" cy="1427" r="4" fill="#034f84" stroke="none"></circle>
    <circle id="C_be6198b" cx="9" cy="1403" r="4" fill="#034f84" stroke="none"></circle>
    <circle id="C_d2a6f2b" cx="9" cy="1379" r="4" fill="#034f84" stroke="none"></circle>
    <circle id="C_42460a8" cx="9" cy="1355" r="4" fill="#034f84" stroke="none"></circle>
    <circle id="C_a01188b" cx="24" cy="1331" r="4" fill="#79c753" stroke="none"></circle>
    <circle id="C_f111261" cx="9" cy="1307" r="4" fill="#034f84" stroke="none"></circle>
    <circle id="C_abdf100" cx="9" cy="1283" r="4" fill="#034f84" stroke="none"></circle>
    <circle id="C_95fb18f" cx="9" cy="1259" r="4" fill="#034f84" stroke="none"></circle>
    <circle id="C_71de8c2" cx="9" cy="1235" r="4" fill="#034f84" stroke="none"></circle>
    <circle id="C_6910520" cx="9" cy="1211" r="4" fill="#034f84" stroke="none"></circle>
    <circle id="C_8b0cb5d" cx="9" cy="1187" r="4" fill="#034f84" stroke="none"></circle>
    <circle id="C_2940855" cx="9" cy="1163" r="4" fill="#034f84" stroke="none"></circle>
    <circle id="C_193e308" cx="9" cy="1139" r="4" fill="#034f84" stroke="none"></circle>
    <circle id="C_ea5ee6c" cx="9" cy="1115" r="4" fill="#034f84" stroke="none"></circle>
    <circle id="C_c08b65f" cx="9" cy="1091" r="4" fill="#034f84" stroke="none"></circle>
    <circle id="C_128eb68" cx="9" cy="1067" r="4" fill="#034f84" stroke="none"></circle>
    <circle id="C_1f6e9de" cx="24" cy="1043" r="4" fill="#79c753" stroke="none"></circle>
    <circle id="C_88bd7f3" cx="24" cy="1019" r="4" fill="#79c753" stroke="none"></circle>
    <circle id="C_f24feb7" cx="9" cy="995" r="4" fill="#034f84" stroke="none"></circle>
    <circle id="C_1a13b25" cx="9" cy="971" r="4" fill="#034f84" stroke="none"></circle>
    <circle id="C_1e4a80a" cx="9" cy="947" r="4" fill="#034f84" stroke="none"></circle>
    <circle id="C_0f73d90" cx="9" cy="923" r="4" fill="#034f84" stroke="none"></circle>
    <circle id="C_ae16332" cx="9" cy="899" r="4" fill="#034f84" stroke="none"></circle>
    <circle id="C_6b8f2a5" cx="9" cy="875" r="4" fill="#034f84" stroke="none"></circle>
    <circle id="C_f0686cf" cx="9" cy="851" r="4" fill="#034f84" stroke="none"></circle>
    <circle id="C_581a3f7" cx="9" cy="827" r="4" fill="#034f84" stroke="none"></circle>
    <circle id="C_e784e74" cx="9" cy="803" r="4" fill="#034f84" stroke="none"></circle>
    <circle id="C_73cba96" cx="9" cy="779" r="4" fill="#034f84" stroke="none"></circle>
    <circle id="C_6e64bf5" cx="9" cy="755" r="4" fill="#034f84" stroke="none"></circle>
    <circle id="C_bbcb31c" cx="9" cy="731" r="4" fill="#034f84" stroke="none"></circle>
    <circle id="C_5680f20" cx="9" cy="707" r="4" fill="#034f84" stroke="none"></circle>
    <circle id="C_c8c2a87" cx="24" cy="683" r="4" fill="#79c753" stroke="none"></circle>
    <circle id="C_fab214f" cx="24" cy="659" r="4" fill="#79c753" stroke="none"></circle>
    <circle id="C_af1680d" cx="9" cy="635" r="4" fill="#034f84" stroke="none"></circle>
    <circle id="C_75e4d4a" cx="9" cy="611" r="4" fill="#034f84" stroke="none"></circle>
    <circle id="C_57b6d36" cx="24" cy="587" r="4" fill="#79c753" stroke="none"></circle>
    <circle id="C_a1bd119" cx="9" cy="563" r="4" fill="#034f84" stroke="none"></circle>
    <circle id="C_08fde94" cx="9" cy="539" r="4" fill="#034f84" stroke="none"></circle>
    <circle id="C_c6e5ce1" cx="9" cy="515" r="4" fill="#034f84" stroke="none"></circle>
    <circle id="C_dddc2cd" cx="24" cy="491" r="4" fill="#79c753" stroke="none"></circle>
    <circle id="C_fee001c" cx="24" cy="467" r="4" fill="#79c753" stroke="none"></circle>
    <circle id="C_d4ee9ff" cx="24" cy="443" r="4" fill="#79c753" stroke="none"></circle>
    <circle id="C_8094eca" cx="9" cy="419" r="4" fill="#034f84" stroke="none"></circle>
    <circle id="C_9a9dd64" cx="9" cy="395" r="4" fill="#034f84" stroke="none"></circle>
    <circle id="C_5f73715" cx="24" cy="371" r="4" fill="#79c753" stroke="none"></circle>
    <circle id="C_b389e56" cx="9" cy="347" r="4" fill="#034f84" stroke="none"></circle>
    <circle id="C_219a30e" cx="9" cy="323" r="4" fill="#034f84" stroke="none"></circle>
    <circle id="C_e4a9093" cx="39" cy="299" r="4" fill="#f7786b" stroke="none"></circle>
    <circle id="C_acab929" cx="24" cy="275" r="4" fill="#79c753" stroke="none"></circle>
    <circle id="C_f46f42e" cx="24" cy="251" r="4" fill="#79c753" stroke="none"></circle>
    <circle id="C_f582d4c" cx="24" cy="227" r="4" fill="#79c753" stroke="none"></circle>
    <circle id="C_37d169f" cx="9" cy="203" r="4" fill="#034f84" stroke="none"></circle>
    <circle id="C_26d0843" cx="9" cy="179" r="4" fill="#034f84" stroke="none"></circle>
    <circle id="C_5f9fff2" cx="9" cy="155" r="4" fill="#034f84" stroke="none"></circle>
    <circle id="C_0780eab" cx="24" cy="131" r="4" fill="#79c753" stroke="none"></circle>
    <circle id="C_1e702a4" cx="9" cy="107" r="4" fill="#034f84" stroke="none"></circle>
    <circle id="C_98d5bc3" cx="9" cy="83" r="4" fill="#034f84" stroke="none"></circle>
    <circle id="C_f1c5b8f" cx="24" cy="59" r="4" fill="#79c753" stroke="none"></circle>
    <circle id="C_7d7200f" cx="9" cy="35" r="4" fill="#034f84" stroke="none"></circle>
    <circle id="C_510aba3" cx="9" cy="11" r="4" fill="#034f84" stroke="none"></circle>
</svg>